<svg width="449" height="327" viewBox="0 0 449 327" fill="none" xmlns="http://www.w3.org/2000/svg">
<path d="M216.647 3.79673C221.155 -0.105195 227.845 -0.105189 232.353 3.79674L280.794 45.7221C283.383 47.9623 286.805 48.9904 290.199 48.5478L364.16 38.9027C371.375 37.9618 377.761 43.6072 377.712 50.8833L377.4 96.9405C377.367 101.837 380.312 106.263 384.842 108.123L441.131 131.229C449.451 134.645 451.196 145.661 444.338 151.48L405.571 184.375C401.318 187.984 400.113 194.048 402.662 199.009L423.189 238.958C427.003 246.38 422.265 255.332 413.983 256.352L344.342 264.931C340.348 265.423 336.866 267.885 335.07 271.487L311.089 319.594C308.267 325.254 301.536 327.753 295.704 325.304L229.145 297.36C226.174 296.113 222.826 296.113 219.855 297.36L153.296 325.304C147.464 327.753 140.733 325.254 137.911 319.594L113.93 271.487C112.134 267.885 108.652 265.423 104.658 264.931L35.0171 256.352C26.7352 255.332 21.9971 246.38 25.8109 238.958L46.3381 199.009C48.8875 194.048 47.682 187.984 43.4287 184.375L4.66218 151.48C-2.19566 145.661 -0.451108 134.645 7.86915 131.229L64.1576 108.123C68.6878 106.263 71.6335 101.837 71.6003 96.9405L71.2884 50.8833C71.2391 43.6072 77.6246 37.9618 84.8398 38.9027L158.801 48.5478C162.195 48.9904 165.617 47.9623 168.206 45.7221L216.647 3.79673Z" fill="#2B2B2B" fill-opacity="0.5"/>
</svg>
